<?xml version="1.0" encoding="UTF-8" standalone="no"?>
<!DOCTYPE svg PUBLIC "-//W3C//DTD SVG 1.1//EN"
 "http://www.w3.org/Graphics/SVG/1.1/DTD/svg11.dtd">
<!-- Generated by graphviz version 2.43.0 (0)
 -->
<!-- Title: wordcount02 Pages: 1 -->
<svg width="100%" height="100%" xmlns="http://www.w3.org/2000/svg" xmlns:xlink="http://www.w3.org/1999/xlink">
<script type="text/ecmascript"><![CDATA[
/**
 *  SVGPan library 1.2.2
 * ======================
 *
 * Given an unique existing element with id "viewport" (or when missing, the
 * first g-element), including the library into any SVG adds the following
 * capabilities:
 *
 *  - Mouse panning
 *  - Mouse zooming (using the wheel)
 *  - Object dragging
 *
 * You can configure the behaviour of the pan/zoom/drag with the variables
 * listed in the CONFIGURATION section of this file.
 *
 * Known issues:
 *
 *  - Zooming (while panning) on Safari has still some issues
 *
 * Releases:
 *
 * 1.2.2, Tue Aug 30 17:21:56 CEST 2011, Andrea Leofreddi
 *	- Fixed viewBox on root tag (#7)
 *	- Improved zoom speed (#2)
 *
 * 1.2.1, Mon Jul  4 00:33:18 CEST 2011, Andrea Leofreddi
 *	- Fixed a regression with mouse wheel (now working on Firefox 5)
 *	- Working with viewBox attribute (#4)
 *	- Added "use strict;" and fixed resulting warnings (#5)
 *	- Added configuration variables, dragging is disabled by default (#3)
 *
 * 1.2, Sat Mar 20 08:42:50 GMT 2010, Zeng Xiaohui
 *	Fixed a bug with browser mouse handler interaction
 *
 * 1.1, Wed Feb  3 17:39:33 GMT 2010, Zeng Xiaohui
 *	Updated the zoom code to support the mouse wheel on Safari/Chrome
 *
 * 1.0, Andrea Leofreddi
 *	First release
 *
 * This code is licensed under the following BSD license:
 *
 * Copyright 2009-2017 Andrea Leofreddi <a.leofreddi@vleo.net>. All rights reserved.
 *
 * Redistribution and use in source and binary forms, with or without modification, are
 * permitted provided that the following conditions are met:
 *
 *    1. Redistributions of source code must retain the above copyright
 *       notice, this list of conditions and the following disclaimer.
 *    2. Redistributions in binary form must reproduce the above copyright
 *       notice, this list of conditions and the following disclaimer in the
 *       documentation and/or other materials provided with the distribution.
 *    3. Neither the name of the copyright holder nor the names of its
 *       contributors may be used to endorse or promote products derived from
 *       this software without specific prior written permission.
 *
 * THIS SOFTWARE IS PROVIDED BY COPYRIGHT HOLDERS AND CONTRIBUTORS ''AS IS'' AND ANY EXPRESS
 * OR IMPLIED WARRANTIES, INCLUDING, BUT NOT LIMITED TO, THE IMPLIED WARRANTIES OF MERCHANTABILITY
 * AND FITNESS FOR A PARTICULAR PURPOSE ARE DISCLAIMED. IN NO EVENT SHALL COPYRIGHT HOLDERS OR
 * CONTRIBUTORS BE LIABLE FOR ANY DIRECT, INDIRECT, INCIDENTAL, SPECIAL, EXEMPLARY, OR
 * CONSEQUENTIAL DAMAGES (INCLUDING, BUT NOT LIMITED TO, PROCUREMENT OF SUBSTITUTE GOODS OR
 * SERVICES; LOSS OF USE, DATA, OR PROFITS; OR BUSINESS INTERRUPTION) HOWEVER CAUSED AND ON
 * ANY THEORY OF LIABILITY, WHETHER IN CONTRACT, STRICT LIABILITY, OR TORT (INCLUDING
 * NEGLIGENCE OR OTHERWISE) ARISING IN ANY WAY OUT OF THE USE OF THIS SOFTWARE, EVEN IF
 * ADVISED OF THE POSSIBILITY OF SUCH DAMAGE.
 *
 * The views and conclusions contained in the software and documentation are those of the
 * authors and should not be interpreted as representing official policies, either expressed
 * or implied, of Andrea Leofreddi.
 */

"use strict";

/// CONFIGURATION
/// ====>

var enablePan = 1; // 1 or 0: enable or disable panning (default enabled)
var enableZoom = 1; // 1 or 0: enable or disable zooming (default enabled)
var enableDrag = 0; // 1 or 0: enable or disable dragging (default disabled)
var zoomScale = 0.2; // Zoom sensitivity

/// <====
/// END OF CONFIGURATION

var root = document.documentElement;

var state = 'none', svgRoot = null, stateTarget, stateOrigin, stateTf;

setupHandlers(root);

/**
 * Register handlers
 */
function setupHandlers(root){
	setAttributes(root, {
		"onmouseup" : "handleMouseUp(evt)",
		"onmousedown" : "handleMouseDown(evt)",
		"onmousemove" : "handleMouseMove(evt)",
		//"onmouseout" : "handleMouseUp(evt)", // Decomment this to stop the pan functionality when dragging out of the SVG element
	});

	if(navigator.userAgent.toLowerCase().indexOf('webkit') >= 0)
		window.addEventListener('mousewheel', handleMouseWheel, false); // Chrome/Safari
	else
		window.addEventListener('DOMMouseScroll', handleMouseWheel, false); // Others
}

/**
 * Retrieves the root element for SVG manipulation. The element is then cached into the svgRoot global variable.
 */
function getRoot(root) {
	if(svgRoot == null) {
		var r = root.getElementById("viewport") ? root.getElementById("viewport") : root.documentElement, t = r;

		while(t != root) {
			if(t.getAttribute("viewBox")) {
				setCTM(r, t.getCTM());

				t.removeAttribute("viewBox");
			}

			t = t.parentNode;
		}

		svgRoot = r;
	}

	return svgRoot;
}

/**
 * Instance an SVGPoint object with given event coordinates.
 */
function getEventPoint(evt) {
	var p = root.createSVGPoint();

	p.x = evt.clientX;
	p.y = evt.clientY;

	return p;
}

/**
 * Sets the current transform matrix of an element.
 */
function setCTM(element, matrix) {
	var s = "matrix(" + matrix.a + "," + matrix.b + "," + matrix.c + "," + matrix.d + "," + matrix.e + "," + matrix.f + ")";

	element.setAttribute("transform", s);
}

/**
 * Dumps a matrix to a string (useful for debug).
 */
function dumpMatrix(matrix) {
	var s = "[ " + matrix.a + ", " + matrix.c + ", " + matrix.e + "\n  " + matrix.b + ", " + matrix.d + ", " + matrix.f + "\n  0, 0, 1 ]";

	return s;
}

/**
 * Sets attributes of an element.
 */
function setAttributes(element, attributes){
	for (var i in attributes)
		element.setAttributeNS(null, i, attributes[i]);
}

/**
 * Handle mouse wheel event.
 */
function handleMouseWheel(evt) {
	if(!enableZoom)
		return;

	if(evt.preventDefault)
		evt.preventDefault();

	evt.returnValue = false;

	var svgDoc = evt.target.ownerDocument;

	var delta;

	if(evt.wheelDelta)
		delta = evt.wheelDelta / 360; // Chrome/Safari
	else
		delta = evt.detail / -9; // Mozilla

	var z = Math.pow(1 + zoomScale, delta);

	var g = getRoot(svgDoc);
	
	var p = getEventPoint(evt);

	p = p.matrixTransform(g.getCTM().inverse());

	// Compute new scale matrix in current mouse position
	var k = root.createSVGMatrix().translate(p.x, p.y).scale(z).translate(-p.x, -p.y);

        setCTM(g, g.getCTM().multiply(k));

	if(typeof(stateTf) == "undefined")
		stateTf = g.getCTM().inverse();

	stateTf = stateTf.multiply(k.inverse());
}

/**
 * Handle mouse move event.
 */
function handleMouseMove(evt) {
	if(evt.preventDefault)
		evt.preventDefault();

	evt.returnValue = false;

	var svgDoc = evt.target.ownerDocument;

	var g = getRoot(svgDoc);

	if(state == 'pan' && enablePan) {
		// Pan mode
		var p = getEventPoint(evt).matrixTransform(stateTf);

		setCTM(g, stateTf.inverse().translate(p.x - stateOrigin.x, p.y - stateOrigin.y));
	} else if(state == 'drag' && enableDrag) {
		// Drag mode
		var p = getEventPoint(evt).matrixTransform(g.getCTM().inverse());

		setCTM(stateTarget, root.createSVGMatrix().translate(p.x - stateOrigin.x, p.y - stateOrigin.y).multiply(g.getCTM().inverse()).multiply(stateTarget.getCTM()));

		stateOrigin = p;
	}
}

/**
 * Handle click event.
 */
function handleMouseDown(evt) {
	if(evt.preventDefault)
		evt.preventDefault();

	evt.returnValue = false;

	var svgDoc = evt.target.ownerDocument;

	var g = getRoot(svgDoc);

	if(
		evt.target.tagName == "svg"
		|| !enableDrag // Pan anyway when drag is disabled and the user clicked on an element
	) {
		// Pan mode
		state = 'pan';

		stateTf = g.getCTM().inverse();

		stateOrigin = getEventPoint(evt).matrixTransform(stateTf);
	} else {
		// Drag mode
		state = 'drag';

		stateTarget = evt.target;

		stateTf = g.getCTM().inverse();

		stateOrigin = getEventPoint(evt).matrixTransform(stateTf);
	}
}

/**
 * Handle mouse button release event.
 */
function handleMouseUp(evt) {
	if(evt.preventDefault)
		evt.preventDefault();

	evt.returnValue = false;

	var svgDoc = evt.target.ownerDocument;

	if(state == 'pan' || state == 'drag') {
		// Quit pan mode
		state = '';
	}
}
]]></script><g id="viewport" transform="scale(0.5,0.5) translate(0,0)"><g id="graph0" class="graph" transform="scale(1 1) rotate(0) translate(4 1016)">
<title>wordcount02</title>
<polygon fill="white" stroke="transparent" points="-4,4 -4,-1016 1205,-1016 1205,4 -4,4"/>
<g id="clust1" class="cluster">
<title>cluster_L</title>
<polygon fill="none" stroke="black" points="8,-871 8,-1004 582,-1004 582,-871 8,-871"/>
</g>
<!-- File: wordcount02 -->
<g id="node1" class="node">
<title>File: wordcount02</title>
<g id="a_node1"><a xlink:title="wordcount02">
<polygon fill="#f8f8f8" stroke="black" points="574,-996 16,-996 16,-879 574,-879 574,-996"/>
<text text-anchor="start" x="24" y="-979.2" font-family="Times,serif" font-size="16.00">File: wordcount02</text>
<text text-anchor="start" x="24" y="-961.2" font-family="Times,serif" font-size="16.00">Type: inuse_space</text>
<text text-anchor="start" x="24" y="-943.2" font-family="Times,serif" font-size="16.00">Time: Mar 8, 2023 at 8:57am (UTC)</text>
<text text-anchor="start" x="24" y="-925.2" font-family="Times,serif" font-size="16.00">Showing nodes accounting for 350.87kB, 100% of 350.87kB total</text>
<text text-anchor="start" x="24" y="-888.2" font-family="Times,serif" font-size="16.00">See https://git.io/JfYMW for how to read the graph</text>
</a>
</g>
</g>
<!-- N1 -->
<g id="node1" class="node">
<title>N1</title>
<g id="a_node1"><a xlink:title="main.readbyte (328.64kB)">
<polygon fill="#edd5d5" stroke="#b20300" points="847.5,-631 600.5,-631 600.5,-545 847.5,-545 847.5,-631"/>
<text text-anchor="middle" x="724" y="-607.8" font-family="Times,serif" font-size="24.00">main</text>
<text text-anchor="middle" x="724" y="-581.8" font-family="Times,serif" font-size="24.00">readbyte</text>
<text text-anchor="middle" x="724" y="-555.8" font-family="Times,serif" font-size="24.00">328.64kB (93.66%)</text>
</a>
</g>
</g>
<!-- NN1_0 -->
<g id="NN1_0" class="node">
<title>NN1_0</title>
<g id="a_NN1_0"><a xlink:title="328.64kB">
<polygon fill="#f8f8f8" stroke="black" points="751,-494 701,-494 697,-490 697,-458 747,-458 751,-462 751,-494"/>
<polyline fill="none" stroke="black" points="747,-490 697,-490 "/>
<polyline fill="none" stroke="black" points="747,-490 747,-458 "/>
<polyline fill="none" stroke="black" points="747,-490 751,-494 "/>
<text text-anchor="middle" x="724" y="-474.1" font-family="Times,serif" font-size="8.00">16B</text>
</a>
</g>
</g>
<!-- N1&#45;&gt;NN1_0 -->
<g id="edge1" class="edge">
<title>N1&#45;&gt;NN1_0</title>
<g id="a_edge1"><a xlink:title="328.64kB">
<path fill="none" stroke="black" d="M724,-544.79C724,-531.2 724,-516.5 724,-504.28"/>
<polygon fill="black" stroke="black" points="727.5,-504.27 724,-494.27 720.5,-504.27 727.5,-504.27"/>
</a>
</g>
<g id="a_edge1&#45;label"><a xlink:title="328.64kB">
<text text-anchor="middle" x="760.5" y="-515.8" font-family="Times,serif" font-size="14.00"> 328.64kB</text>
</a>
</g>
</g>
<!-- N2 -->
<g id="node2" class="node">
<title>N2</title>
<g id="a_node2"><a xlink:title="runtime.main (337.63kB)">
<polygon fill="#edd5d5" stroke="#b20200" points="715.5,-963.5 592.5,-963.5 592.5,-911.5 715.5,-911.5 715.5,-963.5"/>
<text text-anchor="middle" x="654" y="-951.5" font-family="Times,serif" font-size="10.00">runtime</text>
<text text-anchor="middle" x="654" y="-940.5" font-family="Times,serif" font-size="10.00">main</text>
<text text-anchor="middle" x="654" y="-929.5" font-family="Times,serif" font-size="10.00">4.05kB (1.15%)</text>
<text text-anchor="middle" x="654" y="-918.5" font-family="Times,serif" font-size="10.00">of 337.63kB (96.22%)</text>
</a>
</g>
</g>
<!-- NN2_0 -->
<g id="NN2_0" class="node">
<title>NN2_0</title>
<g id="a_NN2_0"><a xlink:title="4.05kB">
<polygon fill="#f8f8f8" stroke="black" points="681,-824 631,-824 627,-820 627,-788 677,-788 681,-792 681,-824"/>
<polyline fill="none" stroke="black" points="677,-820 627,-820 "/>
<polyline fill="none" stroke="black" points="677,-820 677,-788 "/>
<polyline fill="none" stroke="black" points="677,-820 681,-824 "/>
<text text-anchor="middle" x="654" y="-804.1" font-family="Times,serif" font-size="8.00">96B</text>
</a>
</g>
</g>
<!-- N2&#45;&gt;NN2_0 -->
<g id="edge2" class="edge">
<title>N2&#45;&gt;NN2_0</title>
<g id="a_edge2"><a xlink:title="4.05kB">
<path fill="none" stroke="black" d="M654,-911.22C654,-889.11 654,-857.06 654,-834.36"/>
<polygon fill="black" stroke="black" points="657.5,-834.35 654,-824.35 650.5,-834.35 657.5,-834.35"/>
</a>
</g>
<g id="a_edge2&#45;label"><a xlink:title="4.05kB">
<text text-anchor="middle" x="681.5" y="-849.8" font-family="Times,serif" font-size="14.00"> 4.05kB</text>
</a>
</g>
</g>
<!-- N9 -->
<g id="node9" class="node">
<title>N9</title>
<g id="a_node9"><a xlink:title="main.main (328.64kB)">
<polygon fill="#edd5d5" stroke="#b20300" points="780,-733 668,-733 668,-697 780,-697 780,-733"/>
<text text-anchor="middle" x="724" y="-722.1" font-family="Times,serif" font-size="8.00">main</text>
<text text-anchor="middle" x="724" y="-713.1" font-family="Times,serif" font-size="8.00">main</text>
<text text-anchor="middle" x="724" y="-704.1" font-family="Times,serif" font-size="8.00">0 of 328.64kB (93.66%)</text>
</a>
</g>
</g>
<!-- N2&#45;&gt;N9 -->
<g id="edge7" class="edge">
<title>N2&#45;&gt;N9</title>
<g id="a_edge7"><a xlink:title="runtime.main &#45;&gt; main.main (328.64kB)">
<path fill="none" stroke="#b20300" stroke-width="5" d="M678.09,-911.37C689.8,-897.6 702.85,-879.58 710,-861 724.96,-822.11 726.46,-773.21 725.63,-743.3"/>
<polygon fill="#b20300" stroke="#b20300" stroke-width="5" points="730,-743.02 725.24,-733.2 721.26,-743.36 730,-743.02"/>
</a>
</g>
<g id="a_edge7&#45;label"><a xlink:title="runtime.main &#45;&gt; main.main (328.64kB)">
<text text-anchor="middle" x="761.5" y="-802.3" font-family="Times,serif" font-size="14.00"> 328.64kB</text>
</a>
</g>
</g>
<!-- N14 -->
<g id="node14" class="node">
<title>N14</title>
<g id="a_node14"><a xlink:title="runtime.doInit (4.94kB)">
<polygon fill="#edeceb" stroke="#b2afa5" points="931,-733 835,-733 835,-697 931,-697 931,-733"/>
<text text-anchor="middle" x="883" y="-722.1" font-family="Times,serif" font-size="8.00">runtime</text>
<text text-anchor="middle" x="883" y="-713.1" font-family="Times,serif" font-size="8.00">doInit</text>
<text text-anchor="middle" x="883" y="-704.1" font-family="Times,serif" font-size="8.00">0 of 4.94kB (1.41%)</text>
</a>
</g>
</g>
<!-- N2&#45;&gt;N14 -->
<g id="edge22" class="edge">
<title>N2&#45;&gt;N14</title>
<g id="a_edge22"><a xlink:title="runtime.main &#45;&gt; runtime.doInit (4.94kB)">
<path fill="none" stroke="#b2afa5" d="M694.98,-911.48C726.28,-891.23 769.44,-860.77 802,-828 828.4,-801.43 852.71,-765.63 867.67,-741.73"/>
<polygon fill="#b2afa5" stroke="#b2afa5" points="870.67,-743.55 872.93,-733.2 864.71,-739.87 870.67,-743.55"/>
</a>
</g>
<g id="a_edge22&#45;label"><a xlink:title="runtime.main &#45;&gt; runtime.doInit (4.94kB)">
<text text-anchor="middle" x="866.5" y="-802.3" font-family="Times,serif" font-size="14.00"> 4.94kB</text>
</a>
</g>
</g>
<!-- N3 -->
<g id="node3" class="node">
<title>N3</title>
<g id="a_node3"><a xlink:title="runtime.allocm (9.04kB)">
<polygon fill="#edecea" stroke="#b2aa9b" points="1083.5,-131 980.5,-131 980.5,-87 1083.5,-87 1083.5,-131"/>
<text text-anchor="middle" x="1032" y="-118.2" font-family="Times,serif" font-size="11.00">runtime</text>
<text text-anchor="middle" x="1032" y="-106.2" font-family="Times,serif" font-size="11.00">allocm</text>
<text text-anchor="middle" x="1032" y="-94.2" font-family="Times,serif" font-size="11.00">9.04kB (2.58%)</text>
</a>
</g>
</g>
<!-- NN3_0 -->
<g id="NN3_0" class="node">
<title>NN3_0</title>
<g id="a_NN3_0"><a xlink:title="9.04kB">
<polygon fill="#f8f8f8" stroke="black" points="1059,-36 1009,-36 1005,-32 1005,0 1055,0 1059,-4 1059,-36"/>
<polyline fill="none" stroke="black" points="1055,-32 1005,-32 "/>
<polyline fill="none" stroke="black" points="1055,-32 1055,0 "/>
<polyline fill="none" stroke="black" points="1055,-32 1059,-36 "/>
<text text-anchor="middle" x="1032" y="-16.1" font-family="Times,serif" font-size="8.00">1kB</text>
</a>
</g>
</g>
<!-- N3&#45;&gt;NN3_0 -->
<g id="edge3" class="edge">
<title>N3&#45;&gt;NN3_0</title>
<g id="a_edge3"><a xlink:title="9.04kB">
<path fill="none" stroke="black" d="M1032,-86.91C1032,-74.78 1032,-59.41 1032,-46.36"/>
<polygon fill="black" stroke="black" points="1035.5,-46.07 1032,-36.07 1028.5,-46.07 1035.5,-46.07"/>
</a>
</g>
<g id="a_edge3&#45;label"><a xlink:title="9.04kB">
<text text-anchor="middle" x="1059.5" y="-57.8" font-family="Times,serif" font-size="14.00"> 9.04kB</text>
</a>
</g>
</g>
<!-- N4 -->
<g id="node4" class="node">
<title>N4</title>
<g id="a_node4"><a xlink:title="regexp.onePassCopy (4.94kB)">
<polygon fill="#edeceb" stroke="#b2afa5" points="960,-129.5 868,-129.5 868,-88.5 960,-88.5 960,-129.5"/>
<text text-anchor="middle" x="914" y="-117.5" font-family="Times,serif" font-size="10.00">regexp</text>
<text text-anchor="middle" x="914" y="-106.5" font-family="Times,serif" font-size="10.00">onePassCopy</text>
<text text-anchor="middle" x="914" y="-95.5" font-family="Times,serif" font-size="10.00">4.94kB (1.41%)</text>
</a>
</g>
</g>
<!-- NN4_0 -->
<g id="NN4_0" class="node">
<title>NN4_0</title>
<g id="a_NN4_0"><a xlink:title="4.94kB">
<polygon fill="#f8f8f8" stroke="black" points="941,-36 891,-36 887,-32 887,0 937,0 941,-4 941,-36"/>
<polyline fill="none" stroke="black" points="937,-32 887,-32 "/>
<polyline fill="none" stroke="black" points="937,-32 937,0 "/>
<polyline fill="none" stroke="black" points="937,-32 941,-36 "/>
<text text-anchor="middle" x="914" y="-16.1" font-family="Times,serif" font-size="8.00">1.75kB</text>
</a>
</g>
</g>
<!-- N4&#45;&gt;NN4_0 -->
<g id="edge4" class="edge">
<title>N4&#45;&gt;NN4_0</title>
<g id="a_edge4"><a xlink:title="4.94kB">
<path fill="none" stroke="black" d="M914,-88.25C914,-75.96 914,-59.99 914,-46.48"/>
<polygon fill="black" stroke="black" points="917.5,-46.29 914,-36.29 910.5,-46.29 917.5,-46.29"/>
</a>
</g>
<g id="a_edge4&#45;label"><a xlink:title="4.94kB">
<text text-anchor="middle" x="941.5" y="-57.8" font-family="Times,serif" font-size="14.00"> 4.94kB</text>
</a>
</g>
</g>
<!-- N5 -->
<g id="node5" class="node">
<title>N5</title>
<g id="a_node5"><a xlink:title="runtime.mstart (9.04kB)">
<polygon fill="#edecea" stroke="#b2aa9b" points="1080,-955.5 984,-955.5 984,-919.5 1080,-919.5 1080,-955.5"/>
<text text-anchor="middle" x="1032" y="-944.6" font-family="Times,serif" font-size="8.00">runtime</text>
<text text-anchor="middle" x="1032" y="-935.6" font-family="Times,serif" font-size="8.00">mstart</text>
<text text-anchor="middle" x="1032" y="-926.6" font-family="Times,serif" font-size="8.00">0 of 9.04kB (2.58%)</text>
</a>
</g>
</g>
<!-- N15 -->
<g id="node15" class="node">
<title>N15</title>
<g id="a_node15"><a xlink:title="runtime.mstart0 (9.04kB)">
<polygon fill="#edecea" stroke="#b2aa9b" points="1080,-824 984,-824 984,-788 1080,-788 1080,-824"/>
<text text-anchor="middle" x="1032" y="-813.1" font-family="Times,serif" font-size="8.00">runtime</text>
<text text-anchor="middle" x="1032" y="-804.1" font-family="Times,serif" font-size="8.00">mstart0</text>
<text text-anchor="middle" x="1032" y="-795.1" font-family="Times,serif" font-size="8.00">0 of 9.04kB (2.58%)</text>
</a>
</g>
</g>
<!-- N5&#45;&gt;N15 -->
<g id="edge8" class="edge">
<title>N5&#45;&gt;N15</title>
<g id="a_edge8"><a xlink:title="runtime.mstart &#45;&gt; runtime.mstart0 (9.04kB)">
<path fill="none" stroke="#b2aa9b" d="M1032,-919.3C1032,-897.63 1032,-860.12 1032,-834.46"/>
<polygon fill="#b2aa9b" stroke="#b2aa9b" points="1035.5,-834.27 1032,-824.27 1028.5,-834.27 1035.5,-834.27"/>
</a>
</g>
<g id="a_edge8&#45;label"><a xlink:title="runtime.mstart &#45;&gt; runtime.mstart0 (9.04kB)">
<text text-anchor="middle" x="1059.5" y="-849.8" font-family="Times,serif" font-size="14.00"> 9.04kB</text>
</a>
</g>
</g>
<!-- N6 -->
<g id="node6" class="node">
<title>N6</title>
<g id="a_node6"><a xlink:title="runtime.malg (4.21kB)">
<polygon fill="#edeceb" stroke="#b2afa7" points="1192,-608.5 1100,-608.5 1100,-567.5 1192,-567.5 1192,-608.5"/>
<text text-anchor="middle" x="1146" y="-596.5" font-family="Times,serif" font-size="10.00">runtime</text>
<text text-anchor="middle" x="1146" y="-585.5" font-family="Times,serif" font-size="10.00">malg</text>
<text text-anchor="middle" x="1146" y="-574.5" font-family="Times,serif" font-size="10.00">4.21kB (1.20%)</text>
</a>
</g>
</g>
<!-- NN6_0 -->
<g id="NN6_0" class="node">
<title>NN6_0</title>
<g id="a_NN6_0"><a xlink:title="4.21kB">
<polygon fill="#f8f8f8" stroke="black" points="1173,-494 1123,-494 1119,-490 1119,-458 1169,-458 1173,-462 1173,-494"/>
<polyline fill="none" stroke="black" points="1169,-490 1119,-490 "/>
<polyline fill="none" stroke="black" points="1169,-490 1169,-458 "/>
<polyline fill="none" stroke="black" points="1169,-490 1173,-494 "/>
<text text-anchor="middle" x="1146" y="-474.1" font-family="Times,serif" font-size="8.00">416B</text>
</a>
</g>
</g>
<!-- N6&#45;&gt;NN6_0 -->
<g id="edge5" class="edge">
<title>N6&#45;&gt;NN6_0</title>
<g id="a_edge5"><a xlink:title="4.21kB">
<path fill="none" stroke="black" d="M1146,-567.33C1146,-549.81 1146,-524 1146,-504.45"/>
<polygon fill="black" stroke="black" points="1149.5,-504.32 1146,-494.32 1142.5,-504.32 1149.5,-504.32"/>
</a>
</g>
<g id="a_edge5&#45;label"><a xlink:title="4.21kB">
<text text-anchor="middle" x="1173.5" y="-515.8" font-family="Times,serif" font-size="14.00"> 4.21kB</text>
</a>
</g>
</g>
<!-- N7 -->
<g id="node7" class="node">
<title>N7</title>
<g id="a_node7"><a xlink:title="runtime.systemstack (4.21kB)">
<polygon fill="#edeceb" stroke="#b2afa7" points="1194,-955.5 1098,-955.5 1098,-919.5 1194,-919.5 1194,-955.5"/>
<text text-anchor="middle" x="1146" y="-944.6" font-family="Times,serif" font-size="8.00">runtime</text>
<text text-anchor="middle" x="1146" y="-935.6" font-family="Times,serif" font-size="8.00">systemstack</text>
<text text-anchor="middle" x="1146" y="-926.6" font-family="Times,serif" font-size="8.00">0 of 4.21kB (1.20%)</text>
</a>
</g>
</g>
<!-- N18 -->
<g id="node18" class="node">
<title>N18</title>
<g id="a_node18"><a xlink:title="runtime.newproc.func1 (4.21kB)">
<polygon fill="#edeceb" stroke="#b2afa7" points="1194,-828 1098,-828 1098,-784 1194,-784 1194,-828"/>
<text text-anchor="middle" x="1146" y="-817.6" font-family="Times,serif" font-size="8.00">runtime</text>
<text text-anchor="middle" x="1146" y="-808.6" font-family="Times,serif" font-size="8.00">newproc</text>
<text text-anchor="middle" x="1146" y="-799.6" font-family="Times,serif" font-size="8.00">func1</text>
<text text-anchor="middle" x="1146" y="-790.6" font-family="Times,serif" font-size="8.00">0 of 4.21kB (1.20%)</text>
</a>
</g>
</g>
<!-- N7&#45;&gt;N18 -->
<g id="edge25" class="edge">
<title>N7&#45;&gt;N18</title>
<g id="a_edge25"><a xlink:title="runtime.systemstack &#45;&gt; runtime.newproc.func1 (4.21kB)">
<path fill="none" stroke="#b2afa7" d="M1146,-919.3C1146,-898.71 1146,-863.83 1146,-838.39"/>
<polygon fill="#b2afa7" stroke="#b2afa7" points="1149.5,-838.14 1146,-828.14 1142.5,-838.14 1149.5,-838.14"/>
</a>
</g>
<g id="a_edge25&#45;label"><a xlink:title="runtime.systemstack &#45;&gt; runtime.newproc.func1 (4.21kB)">
<text text-anchor="middle" x="1173.5" y="-849.8" font-family="Times,serif" font-size="14.00"> 4.21kB</text>
</a>
</g>
</g>
<!-- N8 -->
<g id="node8" class="node">
<title>N8</title>
<g id="a_node8"><a xlink:title="github.com/google/pprof/profile.init (4.94kB)">
<polygon fill="#edeceb" stroke="#b2afa5" points="962,-606 866,-606 866,-570 962,-570 962,-606"/>
<text text-anchor="middle" x="914" y="-595.1" font-family="Times,serif" font-size="8.00">profile</text>
<text text-anchor="middle" x="914" y="-586.1" font-family="Times,serif" font-size="8.00">init</text>
<text text-anchor="middle" x="914" y="-577.1" font-family="Times,serif" font-size="8.00">0 of 4.94kB (1.41%)</text>
</a>
</g>
</g>
<!-- N11 -->
<g id="node11" class="node">
<title>N11</title>
<g id="a_node11"><a xlink:title="regexp.MustCompile (4.94kB)">
<polygon fill="#edeceb" stroke="#b2afa5" points="962,-494 866,-494 866,-458 962,-458 962,-494"/>
<text text-anchor="middle" x="914" y="-483.1" font-family="Times,serif" font-size="8.00">regexp</text>
<text text-anchor="middle" x="914" y="-474.1" font-family="Times,serif" font-size="8.00">MustCompile</text>
<text text-anchor="middle" x="914" y="-465.1" font-family="Times,serif" font-size="8.00">0 of 4.94kB (1.41%)</text>
</a>
</g>
</g>
<!-- N8&#45;&gt;N11 -->
<g id="edge16" class="edge">
<title>N8&#45;&gt;N11</title>
<g id="a_edge16"><a xlink:title="github.com/google/pprof/profile.init &#45;&gt; regexp.MustCompile (4.94kB)">
<path fill="none" stroke="#b2afa5" d="M914,-569.81C914,-552.21 914,-524.61 914,-504.07"/>
<polygon fill="#b2afa5" stroke="#b2afa5" points="917.5,-504.07 914,-494.07 910.5,-504.07 917.5,-504.07"/>
</a>
</g>
<g id="a_edge16&#45;label"><a xlink:title="github.com/google/pprof/profile.init &#45;&gt; regexp.MustCompile (4.94kB)">
<text text-anchor="middle" x="941.5" y="-515.8" font-family="Times,serif" font-size="14.00"> 4.94kB</text>
</a>
</g>
</g>
<!-- N9&#45;&gt;N1 -->
<g id="edge6" class="edge">
<title>N9&#45;&gt;N1</title>
<g id="a_edge6"><a xlink:title="main.main &#45;&gt; main.readbyte (328.64kB)">
<path fill="none" stroke="#b20300" stroke-width="5" d="M724,-696.88C724,-682.53 724,-661.26 724,-641.39"/>
<polygon fill="#b20300" stroke="#b20300" stroke-width="5" points="728.38,-641.17 724,-631.17 719.63,-641.17 728.38,-641.17"/>
</a>
</g>
<g id="a_edge6&#45;label"><a xlink:title="main.main &#45;&gt; main.readbyte (328.64kB)">
<text text-anchor="middle" x="760.5" y="-667.8" font-family="Times,serif" font-size="14.00"> 328.64kB</text>
<text text-anchor="middle" x="760.5" y="-652.8" font-family="Times,serif" font-size="14.00"> (inline)</text>
</a>
</g>
</g>
<!-- N10 -->
<g id="node10" class="node">
<title>N10</title>
<g id="a_node10"><a xlink:title="regexp.Compile (4.94kB)">
<polygon fill="#edeceb" stroke="#b2afa5" points="962,-392 866,-392 866,-356 962,-356 962,-392"/>
<text text-anchor="middle" x="914" y="-381.1" font-family="Times,serif" font-size="8.00">regexp</text>
<text text-anchor="middle" x="914" y="-372.1" font-family="Times,serif" font-size="8.00">Compile</text>
<text text-anchor="middle" x="914" y="-363.1" font-family="Times,serif" font-size="8.00">0 of 4.94kB (1.41%)</text>
</a>
</g>
</g>
<!-- N12 -->
<g id="node12" class="node">
<title>N12</title>
<g id="a_node12"><a xlink:title="regexp.compile (4.94kB)">
<polygon fill="#edeceb" stroke="#b2afa5" points="962,-305 866,-305 866,-269 962,-269 962,-305"/>
<text text-anchor="middle" x="914" y="-294.1" font-family="Times,serif" font-size="8.00">regexp</text>
<text text-anchor="middle" x="914" y="-285.1" font-family="Times,serif" font-size="8.00">compile</text>
<text text-anchor="middle" x="914" y="-276.1" font-family="Times,serif" font-size="8.00">0 of 4.94kB (1.41%)</text>
</a>
</g>
</g>
<!-- N10&#45;&gt;N12 -->
<g id="edge17" class="edge">
<title>N10&#45;&gt;N12</title>
<g id="a_edge17"><a xlink:title="regexp.Compile &#45;&gt; regexp.compile (4.94kB)">
<path fill="none" stroke="#b2afa5" d="M914,-355.8C914,-344.16 914,-328.55 914,-315.24"/>
<polygon fill="#b2afa5" stroke="#b2afa5" points="917.5,-315.18 914,-305.18 910.5,-315.18 917.5,-315.18"/>
</a>
</g>
<g id="a_edge17&#45;label"><a xlink:title="regexp.Compile &#45;&gt; regexp.compile (4.94kB)">
<text text-anchor="middle" x="941.5" y="-326.8" font-family="Times,serif" font-size="14.00"> 4.94kB</text>
</a>
</g>
</g>
<!-- N11&#45;&gt;N10 -->
<g id="edge18" class="edge">
<title>N11&#45;&gt;N10</title>
<g id="a_edge18"><a xlink:title="regexp.MustCompile &#45;&gt; regexp.Compile (4.94kB)">
<path fill="none" stroke="#b2afa5" d="M914,-457.58C914,-442.38 914,-420.07 914,-402.46"/>
<polygon fill="#b2afa5" stroke="#b2afa5" points="917.5,-402.22 914,-392.22 910.5,-402.22 917.5,-402.22"/>
</a>
</g>
<g id="a_edge18&#45;label"><a xlink:title="regexp.MustCompile &#45;&gt; regexp.Compile (4.94kB)">
<text text-anchor="middle" x="941.5" y="-428.8" font-family="Times,serif" font-size="14.00"> 4.94kB</text>
<text text-anchor="middle" x="941.5" y="-413.8" font-family="Times,serif" font-size="14.00"> (inline)</text>
</a>
</g>
</g>
<!-- N13 -->
<g id="node13" class="node">
<title>N13</title>
<g id="a_node13"><a xlink:title="regexp.compileOnePass (4.94kB)">
<polygon fill="#edeceb" stroke="#b2afa5" points="962,-218 866,-218 866,-182 962,-182 962,-218"/>
<text text-anchor="middle" x="914" y="-207.1" font-family="Times,serif" font-size="8.00">regexp</text>
<text text-anchor="middle" x="914" y="-198.1" font-family="Times,serif" font-size="8.00">compileOnePass</text>
<text text-anchor="middle" x="914" y="-189.1" font-family="Times,serif" font-size="8.00">0 of 4.94kB (1.41%)</text>
</a>
</g>
</g>
<!-- N12&#45;&gt;N13 -->
<g id="edge19" class="edge">
<title>N12&#45;&gt;N13</title>
<g id="a_edge19"><a xlink:title="regexp.compile &#45;&gt; regexp.compileOnePass (4.94kB)">
<path fill="none" stroke="#b2afa5" d="M914,-268.8C914,-257.16 914,-241.55 914,-228.24"/>
<polygon fill="#b2afa5" stroke="#b2afa5" points="917.5,-228.18 914,-218.18 910.5,-228.18 917.5,-228.18"/>
</a>
</g>
<g id="a_edge19&#45;label"><a xlink:title="regexp.compile &#45;&gt; regexp.compileOnePass (4.94kB)">
<text text-anchor="middle" x="941.5" y="-239.8" font-family="Times,serif" font-size="14.00"> 4.94kB</text>
</a>
</g>
</g>
<!-- N13&#45;&gt;N4 -->
<g id="edge20" class="edge">
<title>N13&#45;&gt;N4</title>
<g id="a_edge20"><a xlink:title="regexp.compileOnePass &#45;&gt; regexp.onePassCopy (4.94kB)">
<path fill="none" stroke="#b2afa5" d="M914,-181.84C914,-169.93 914,-153.74 914,-139.75"/>
<polygon fill="#b2afa5" stroke="#b2afa5" points="917.5,-139.59 914,-129.59 910.5,-139.59 917.5,-139.59"/>
</a>
</g>
<g id="a_edge20&#45;label"><a xlink:title="regexp.compileOnePass &#45;&gt; regexp.onePassCopy (4.94kB)">
<text text-anchor="middle" x="941.5" y="-152.8" font-family="Times,serif" font-size="14.00"> 4.94kB</text>
</a>
</g>
</g>
<!-- N14&#45;&gt;N8 -->
<g id="edge21" class="edge">
<title>N14&#45;&gt;N8</title>
<g id="a_edge21"><a xlink:title="runtime.doInit &#45;&gt; github.com/google/pprof/profile.init (4.94kB)">
<path fill="none" stroke="#b2afa5" d="M887.25,-696.88C892.41,-676.05 901.19,-640.64 907.28,-616.09"/>
<polygon fill="#b2afa5" stroke="#b2afa5" points="910.7,-616.86 909.71,-606.31 903.9,-615.18 910.7,-616.86"/>
</a>
</g>
<g id="a_edge21&#45;label"><a xlink:title="runtime.doInit &#45;&gt; github.com/google/pprof/profile.init (4.94kB)">
<text text-anchor="middle" x="925.5" y="-660.3" font-family="Times,serif" font-size="14.00"> 4.94kB</text>
</a>
</g>
</g>
<!-- N16 -->
<g id="node16" class="node">
<title>N16</title>
<g id="a_node16"><a xlink:title="runtime.mstart1 (9.04kB)">
<polygon fill="#edecea" stroke="#b2aa9b" points="1080,-733 984,-733 984,-697 1080,-697 1080,-733"/>
<text text-anchor="middle" x="1032" y="-722.1" font-family="Times,serif" font-size="8.00">runtime</text>
<text text-anchor="middle" x="1032" y="-713.1" font-family="Times,serif" font-size="8.00">mstart1</text>
<text text-anchor="middle" x="1032" y="-704.1" font-family="Times,serif" font-size="8.00">0 of 9.04kB (2.58%)</text>
</a>
</g>
</g>
<!-- N15&#45;&gt;N16 -->
<g id="edge9" class="edge">
<title>N15&#45;&gt;N16</title>
<g id="a_edge9"><a xlink:title="runtime.mstart0 &#45;&gt; runtime.mstart1 (9.04kB)">
<path fill="none" stroke="#b2aa9b" d="M1032,-787.84C1032,-775.28 1032,-757.98 1032,-743.5"/>
<polygon fill="#b2aa9b" stroke="#b2aa9b" points="1035.5,-743.11 1032,-733.11 1028.5,-743.11 1035.5,-743.11"/>
</a>
</g>
<g id="a_edge9&#45;label"><a xlink:title="runtime.mstart0 &#45;&gt; runtime.mstart1 (9.04kB)">
<text text-anchor="middle" x="1059.5" y="-754.8" font-family="Times,serif" font-size="14.00"> 9.04kB</text>
</a>
</g>
</g>
<!-- N21 -->
<g id="node21" class="node">
<title>N21</title>
<g id="a_node21"><a xlink:title="runtime.schedule (9.04kB)">
<polygon fill="#edecea" stroke="#b2aa9b" points="1080,-606 984,-606 984,-570 1080,-570 1080,-606"/>
<text text-anchor="middle" x="1032" y="-595.1" font-family="Times,serif" font-size="8.00">runtime</text>
<text text-anchor="middle" x="1032" y="-586.1" font-family="Times,serif" font-size="8.00">schedule</text>
<text text-anchor="middle" x="1032" y="-577.1" font-family="Times,serif" font-size="8.00">0 of 9.04kB (2.58%)</text>
</a>
</g>
</g>
<!-- N16&#45;&gt;N21 -->
<g id="edge10" class="edge">
<title>N16&#45;&gt;N21</title>
<g id="a_edge10"><a xlink:title="runtime.mstart1 &#45;&gt; runtime.schedule (9.04kB)">
<path fill="none" stroke="#b2aa9b" d="M1032,-696.88C1032,-676.15 1032,-640.95 1032,-616.42"/>
<polygon fill="#b2aa9b" stroke="#b2aa9b" points="1035.5,-616.31 1032,-606.31 1028.5,-616.31 1035.5,-616.31"/>
</a>
</g>
<g id="a_edge10&#45;label"><a xlink:title="runtime.mstart1 &#45;&gt; runtime.schedule (9.04kB)">
<text text-anchor="middle" x="1059.5" y="-660.3" font-family="Times,serif" font-size="14.00"> 9.04kB</text>
</a>
</g>
</g>
<!-- N17 -->
<g id="node17" class="node">
<title>N17</title>
<g id="a_node17"><a xlink:title="runtime.newm (9.04kB)">
<polygon fill="#edecea" stroke="#b2aa9b" points="1080,-218 984,-218 984,-182 1080,-182 1080,-218"/>
<text text-anchor="middle" x="1032" y="-207.1" font-family="Times,serif" font-size="8.00">runtime</text>
<text text-anchor="middle" x="1032" y="-198.1" font-family="Times,serif" font-size="8.00">newm</text>
<text text-anchor="middle" x="1032" y="-189.1" font-family="Times,serif" font-size="8.00">0 of 9.04kB (2.58%)</text>
</a>
</g>
</g>
<!-- N17&#45;&gt;N3 -->
<g id="edge11" class="edge">
<title>N17&#45;&gt;N3</title>
<g id="a_edge11"><a xlink:title="runtime.newm &#45;&gt; runtime.allocm (9.04kB)">
<path fill="none" stroke="#b2aa9b" d="M1032,-181.84C1032,-170.44 1032,-155.13 1032,-141.58"/>
<polygon fill="#b2aa9b" stroke="#b2aa9b" points="1035.5,-141.19 1032,-131.19 1028.5,-141.19 1035.5,-141.19"/>
</a>
</g>
<g id="a_edge11&#45;label"><a xlink:title="runtime.newm &#45;&gt; runtime.allocm (9.04kB)">
<text text-anchor="middle" x="1059.5" y="-152.8" font-family="Times,serif" font-size="14.00"> 9.04kB</text>
</a>
</g>
</g>
<!-- N19 -->
<g id="node19" class="node">
<title>N19</title>
<g id="a_node19"><a xlink:title="runtime.newproc1 (4.21kB)">
<polygon fill="#edeceb" stroke="#b2afa7" points="1194,-733 1098,-733 1098,-697 1194,-697 1194,-733"/>
<text text-anchor="middle" x="1146" y="-722.1" font-family="Times,serif" font-size="8.00">runtime</text>
<text text-anchor="middle" x="1146" y="-713.1" font-family="Times,serif" font-size="8.00">newproc1</text>
<text text-anchor="middle" x="1146" y="-704.1" font-family="Times,serif" font-size="8.00">0 of 4.21kB (1.20%)</text>
</a>
</g>
</g>
<!-- N18&#45;&gt;N19 -->
<g id="edge23" class="edge">
<title>N18&#45;&gt;N19</title>
<g id="a_edge23"><a xlink:title="runtime.newproc.func1 &#45;&gt; runtime.newproc1 (4.21kB)">
<path fill="none" stroke="#b2afa7" d="M1146,-783.91C1146,-771.78 1146,-756.41 1146,-743.36"/>
<polygon fill="#b2afa7" stroke="#b2afa7" points="1149.5,-743.07 1146,-733.07 1142.5,-743.07 1149.5,-743.07"/>
</a>
</g>
<g id="a_edge23&#45;label"><a xlink:title="runtime.newproc.func1 &#45;&gt; runtime.newproc1 (4.21kB)">
<text text-anchor="middle" x="1173.5" y="-754.8" font-family="Times,serif" font-size="14.00"> 4.21kB</text>
</a>
</g>
</g>
<!-- N19&#45;&gt;N6 -->
<g id="edge24" class="edge">
<title>N19&#45;&gt;N6</title>
<g id="a_edge24"><a xlink:title="runtime.newproc1 &#45;&gt; runtime.malg (4.21kB)">
<path fill="none" stroke="#b2afa7" d="M1146,-696.88C1146,-676.85 1146,-643.31 1146,-618.94"/>
<polygon fill="#b2afa7" stroke="#b2afa7" points="1149.5,-618.79 1146,-608.79 1142.5,-618.79 1149.5,-618.79"/>
</a>
</g>
<g id="a_edge24&#45;label"><a xlink:title="runtime.newproc1 &#45;&gt; runtime.malg (4.21kB)">
<text text-anchor="middle" x="1173.5" y="-660.3" font-family="Times,serif" font-size="14.00"> 4.21kB</text>
</a>
</g>
</g>
<!-- N20 -->
<g id="node20" class="node">
<title>N20</title>
<g id="a_node20"><a xlink:title="runtime.resetspinning (9.04kB)">
<polygon fill="#edecea" stroke="#b2aa9b" points="1080,-494 984,-494 984,-458 1080,-458 1080,-494"/>
<text text-anchor="middle" x="1032" y="-483.1" font-family="Times,serif" font-size="8.00">runtime</text>
<text text-anchor="middle" x="1032" y="-474.1" font-family="Times,serif" font-size="8.00">resetspinning</text>
<text text-anchor="middle" x="1032" y="-465.1" font-family="Times,serif" font-size="8.00">0 of 9.04kB (2.58%)</text>
</a>
</g>
</g>
<!-- N23 -->
<g id="node23" class="node">
<title>N23</title>
<g id="a_node23"><a xlink:title="runtime.wakep (9.04kB)">
<polygon fill="#edecea" stroke="#b2aa9b" points="1080,-392 984,-392 984,-356 1080,-356 1080,-392"/>
<text text-anchor="middle" x="1032" y="-381.1" font-family="Times,serif" font-size="8.00">runtime</text>
<text text-anchor="middle" x="1032" y="-372.1" font-family="Times,serif" font-size="8.00">wakep</text>
<text text-anchor="middle" x="1032" y="-363.1" font-family="Times,serif" font-size="8.00">0 of 9.04kB (2.58%)</text>
</a>
</g>
</g>
<!-- N20&#45;&gt;N23 -->
<g id="edge12" class="edge">
<title>N20&#45;&gt;N23</title>
<g id="a_edge12"><a xlink:title="runtime.resetspinning &#45;&gt; runtime.wakep (9.04kB)">
<path fill="none" stroke="#b2aa9b" d="M1032,-457.58C1032,-442.38 1032,-420.07 1032,-402.46"/>
<polygon fill="#b2aa9b" stroke="#b2aa9b" points="1035.5,-402.22 1032,-392.22 1028.5,-402.22 1035.5,-402.22"/>
</a>
</g>
<g id="a_edge12&#45;label"><a xlink:title="runtime.resetspinning &#45;&gt; runtime.wakep (9.04kB)">
<text text-anchor="middle" x="1059.5" y="-421.3" font-family="Times,serif" font-size="14.00"> 9.04kB</text>
</a>
</g>
</g>
<!-- N21&#45;&gt;N20 -->
<g id="edge13" class="edge">
<title>N21&#45;&gt;N20</title>
<g id="a_edge13"><a xlink:title="runtime.schedule &#45;&gt; runtime.resetspinning (9.04kB)">
<path fill="none" stroke="#b2aa9b" d="M1032,-569.81C1032,-552.21 1032,-524.61 1032,-504.07"/>
<polygon fill="#b2aa9b" stroke="#b2aa9b" points="1035.5,-504.07 1032,-494.07 1028.5,-504.07 1035.5,-504.07"/>
</a>
</g>
<g id="a_edge13&#45;label"><a xlink:title="runtime.schedule &#45;&gt; runtime.resetspinning (9.04kB)">
<text text-anchor="middle" x="1059.5" y="-515.8" font-family="Times,serif" font-size="14.00"> 9.04kB</text>
</a>
</g>
</g>
<!-- N22 -->
<g id="node22" class="node">
<title>N22</title>
<g id="a_node22"><a xlink:title="runtime.startm (9.04kB)">
<polygon fill="#edecea" stroke="#b2aa9b" points="1080,-305 984,-305 984,-269 1080,-269 1080,-305"/>
<text text-anchor="middle" x="1032" y="-294.1" font-family="Times,serif" font-size="8.00">runtime</text>
<text text-anchor="middle" x="1032" y="-285.1" font-family="Times,serif" font-size="8.00">startm</text>
<text text-anchor="middle" x="1032" y="-276.1" font-family="Times,serif" font-size="8.00">0 of 9.04kB (2.58%)</text>
</a>
</g>
</g>
<!-- N22&#45;&gt;N17 -->
<g id="edge14" class="edge">
<title>N22&#45;&gt;N17</title>
<g id="a_edge14"><a xlink:title="runtime.startm &#45;&gt; runtime.newm (9.04kB)">
<path fill="none" stroke="#b2aa9b" d="M1032,-268.8C1032,-257.16 1032,-241.55 1032,-228.24"/>
<polygon fill="#b2aa9b" stroke="#b2aa9b" points="1035.5,-228.18 1032,-218.18 1028.5,-228.18 1035.5,-228.18"/>
</a>
</g>
<g id="a_edge14&#45;label"><a xlink:title="runtime.startm &#45;&gt; runtime.newm (9.04kB)">
<text text-anchor="middle" x="1059.5" y="-239.8" font-family="Times,serif" font-size="14.00"> 9.04kB</text>
</a>
</g>
</g>
<!-- N23&#45;&gt;N22 -->
<g id="edge15" class="edge">
<title>N23&#45;&gt;N22</title>
<g id="a_edge15"><a xlink:title="runtime.wakep &#45;&gt; runtime.startm (9.04kB)">
<path fill="none" stroke="#b2aa9b" d="M1032,-355.8C1032,-344.16 1032,-328.55 1032,-315.24"/>
<polygon fill="#b2aa9b" stroke="#b2aa9b" points="1035.5,-315.18 1032,-305.18 1028.5,-315.18 1035.5,-315.18"/>
</a>
</g>
<g id="a_edge15&#45;label"><a xlink:title="runtime.wakep &#45;&gt; runtime.startm (9.04kB)">
<text text-anchor="middle" x="1059.5" y="-326.8" font-family="Times,serif" font-size="14.00"> 9.04kB</text>
</a>
</g>
</g>
</g>
</g></svg>
